<?xml version="1.0" encoding="UTF-8"?>
<svg id="uuid-de601440-95aa-4392-bd7a-289678059ddb" data-name="Capa 1" xmlns="http://www.w3.org/2000/svg" viewBox="0 0 284.43 262.98">
  <path d="m31.97,132.58c0-29.82-.02-59.64.01-89.46.01-11.37,5.79-18.54,16.64-19.74,3.47-.38,7.51.57,10.69,2.13,37.11,18.19,74.09,36.62,111.12,54.97,23.47,11.63,46.91,23.33,70.47,34.79,7.6,3.7,12.21,9.3,12.12,17.72-.09,8.07-4.89,13.22-12.04,16.73-21.58,10.62-43.03,21.5-64.57,32.22-29.25,14.55-58.51,29.05-87.79,43.53-9.36,4.63-19.08,8.62-28.13,13.8-11.58,6.62-28.8.32-28.63-17.73.27-29.65.07-59.3.07-88.96h.03Z" style="fill: #fff; stroke-width: 0px;"/>
</svg>