<?xml version="1.0" encoding="UTF-8"?>
<svg id="uuid-fb639b6a-25f2-4cbb-92cb-fb0e1a0128e9" data-name="Capa 2" xmlns="http://www.w3.org/2000/svg" viewBox="0 0 198.72 42.89">
  <g id="uuid-766eac01-e5ad-4e1e-810e-b60ca92323af" data-name="Capa 1">
    <path d="M0,25.99h48.76c3.24,0,6.3-1.54,8.18-4.18C62.26,14.31,75.68-.61,97.77.15s32.6,14,37.36,21.23c1.88,2.85,5.04,4.6,8.45,4.6h55.13" style="fill: none; stroke: #fff2d3; stroke-miterlimit: 10; stroke-width: .25px;"/>
  </g>
  <g id="uuid-7d6f38c2-a2aa-411b-a938-a7aa301ff414" data-name="Capa 2">
    <g>
      <path d="M97.83,42.89c-.81,0-1.47-.66-1.47-1.47V12.08c0-.81.66-1.47,1.47-1.47s1.47.66,1.47,1.47v29.35c0,.81-.66,1.47-1.47,1.47Z" style="fill: #f8eac8; stroke-width: 0px;"/>
      <path d="M103.7,37.32c-.81,0-1.47-.66-1.47-1.47v-18.2c0-.81.66-1.47,1.47-1.47s1.47.66,1.47,1.47v18.2c0,.81-.66,1.47-1.47,1.47Z" style="fill: #f8eac8; stroke-width: 0px;"/>
      <path d="M109.57,31.89c-.81,0-1.47-.66-1.47-1.47v-7.34c0-.81.66-1.47,1.47-1.47s1.47.66,1.47,1.47v7.34c0,.81-.66,1.47-1.47,1.47Z" style="fill: #f8eac8; stroke-width: 0px;"/>
      <path d="M115.44,30.13c-.81,0-1.47-.66-1.47-1.47v-3.82c0-.81.66-1.47,1.47-1.47s1.47.66,1.47,1.47v3.82c0,.81-.66,1.47-1.47,1.47Z" style="fill: #f8eac8; stroke-width: 0px;"/>
      <path d="M91.96,37.32c-.81,0-1.47-.66-1.47-1.47v-18.2c0-.81.66-1.47,1.47-1.47s1.47.66,1.47,1.47v18.2c0,.81-.66,1.47-1.47,1.47Z" style="fill: #f8eac8; stroke-width: 0px;"/>
      <path d="M86.09,31.89c-.81,0-1.47-.66-1.47-1.47v-7.34c0-.81.66-1.47,1.47-1.47s1.47.66,1.47,1.47v7.34c0,.81-.66,1.47-1.47,1.47Z" style="fill: #f8eac8; stroke-width: 0px;"/>
      <path d="M80.22,30.13c-.81,0-1.47-.66-1.47-1.47v-3.82c0-.81.66-1.47,1.47-1.47s1.47.66,1.47,1.47v3.82c0,.81-.66,1.47-1.47,1.47Z" style="fill: #f8eac8; stroke-width: 0px;"/>
      <path d="M74.35,29.69c-.81,0-1.47-.66-1.47-1.47v-2.93c0-.81.66-1.47,1.47-1.47s1.47.66,1.47,1.47v2.93c0,.81-.66,1.47-1.47,1.47Z" style="fill: #f8eac8; stroke-width: 0px;"/>
      <path d="M121.3,29.69c-.81,0-1.47-.66-1.47-1.47v-2.93c0-.81.66-1.47,1.47-1.47s1.47.66,1.47,1.47v2.93c0,.81-.66,1.47-1.47,1.47Z" style="fill: #f8eac8; stroke-width: 0px;"/>
    </g>
  </g>
</svg>