<?xml version="1.0" encoding="UTF-8"?>
<svg id="uuid-e4bfb99f-a0be-4e64-ac62-8da823580e50" data-name="Capa 2" xmlns="http://www.w3.org/2000/svg" viewBox="0 0 70 61.1">
  <g id="uuid-eb8117ea-4b03-40b9-84f5-7d56295b02b9" data-name="Capa 1">
    <g>
      <path d="M63.25,61.1H6.75c-2.45,0-4.64-1.27-5.86-3.4-1.21-2.13-1.19-4.66.06-6.77L29.2,3.3c1.23-2.07,3.39-3.3,5.8-3.3s4.57,1.23,5.8,3.3l28.25,47.62h0c1.25,2.11,1.27,4.64.06,6.77-1.21,2.13-3.4,3.4-5.86,3.4ZM35,2.28c-1.59,0-3.02.82-3.83,2.18L2.92,52.08c-.83,1.39-.84,3.07-.04,4.48.8,1.41,2.25,2.25,3.87,2.25h56.5c1.62,0,3.07-.84,3.87-2.25.8-1.41.79-3.08-.04-4.48L38.83,4.47c-.81-1.37-2.24-2.18-3.83-2.18Z" style="fill: #fff3d7; stroke-width: 0px;"/>
      <g>
        <path d="M36.6,41.48h-3.2c-1.53,0-2.77-1.2-2.84-2.72l-.77-18.47c-.04-.95.3-1.86.96-2.55s1.55-1.07,2.5-1.07h3.48c.95,0,1.84.38,2.5,1.07.66.69,1,1.59.96,2.55l-.77,18.47c-.06,1.53-1.31,2.72-2.84,2.72ZM33.26,18.96c-.33,0-.63.13-.85.36-.23.24-.34.54-.33.87l.77,18.47c.01.3.26.53.55.53h3.2c.3,0,.54-.23.55-.53l.77-18.47c.01-.33-.1-.63-.33-.87-.23-.24-.53-.36-.85-.36h-3.48Z" style="fill: #fff3d7; stroke-width: 0px;"/>
        <path d="M35,53.05c-2.38,0-4.31-1.93-4.31-4.31s1.93-4.31,4.31-4.31,4.31,1.93,4.31,4.31-1.93,4.31-4.31,4.31ZM35,46.72c-1.12,0-2.03.91-2.03,2.03s.91,2.03,2.03,2.03,2.03-.91,2.03-2.03-.91-2.03-2.03-2.03Z" style="fill: #fff3d7; stroke-width: 0px;"/>
      </g>
    </g>
  </g>
</svg>