<?xml version="1.0" encoding="UTF-8"?>
<svg id="uuid-4d4d60bf-1e7b-484a-bebc-7ce99a7efb46" width="500" height="500" data-name="Capa 1" xmlns="http://www.w3.org/2000/svg" viewBox="0 0 459.93 459.77"> 
  <path d="m0,459.77c13.11-38.7,25.81-76.46,38.78-114.14,1.44-4.19,1.09-7.29-1.11-11.09C-17.34,239.46,6.83,116.04,93.69,48.65,145.23,8.66,203.65-6.56,267.98,2.56c92.81,13.17,168.33,84.69,187.31,176.17,23.63,113.95-45.23,228.14-157.19,260.18-58.54,16.75-115.06,11-169.43-16.45-2.2-1.11-5.48-1.44-7.82-.71-38.5,12.06-76.92,24.35-115.37,36.57-1.53.48-3.1.81-5.49,1.43Zm56.83-55.63c2.01-.48,3.26-.71,4.46-1.09,20.89-6.62,41.8-13.15,62.62-19.98,3.98-1.3,6.91-1.05,10.59,1.19,39.55,24.1,82.45,33.03,128.16,26.04,80.74-12.34,143.95-72.86,157.91-152.91,12.06-69.13-8.99-128.37-61.52-174.6-62.59-55.09-149.53-63.15-221.26-20.65-59.26,35.11-90.59,88.45-93.35,157.49-1.63,40.81,10.35,78.07,33.68,111.59,1.71,2.46,2.01,4.5,1,7.29-3.32,9.21-6.38,18.52-9.53,27.8-4.19,12.36-8.35,24.74-12.77,37.83Z" style="fill:#fff; stroke-width: 0px;"/>
  <path d="m164.73,122.38c10.08-2.94,14.38,3.5,17.75,12.12,4.89,12.53,10.2,24.9,15.58,37.23,1.9,4.36,2.17,8.44-.57,12.27-4.05,5.65-8.23,11.24-12.72,16.54-4.49,5.3-4.93,6.98-1.46,12.76,18,29.97,43.16,51.5,75.68,64.43,4.45,1.77,8.05,1.24,11.11-2.54,5.45-6.71,11.02-13.33,16.4-20.1,4.33-5.46,6.43-6.55,12.76-3.67,15.27,6.94,30.42,14.15,45.39,21.71,2.05,1.04,3.92,4.68,3.95,7.14.38,25.13-12.11,39.4-40.24,47.58-14.84,4.32-28.44-.49-42.38-4.47-50.58-14.44-87.84-46.24-117.21-88.71-9.79-14.16-19.17-28.43-22.98-45.51-5.31-23.86.84-44.38,18.42-61.43,5.63-5.45,12.43-6.67,20.51-5.34Z" style="fill:#fff;stroke-width: 0px;"/>
</svg>